<svg width="256" height="64" viewBox="0 0 256 64" xmlns="http://www.w3.org/2000/svg">
    <g>
        <g>
            <path d="M29.153,7.896l29.152,48.208l-58.305,0l29.153,-48.208Z" style="fill:#51c200;"/>
            <path d="M58.305,56.104l-58.305,0l7.361,-12.172l50.944,12.172Z" style="fill-opacity:0.309804;"/>
            <path d="M29.153,7.896l-7.649,48.208l-21.504,0l29.153,-48.208Z" style="fill-opacity:0.207843;"/>
            <path d="M0,56.104l29.153,0l-29.153,0l0,0Z" style="fill-opacity:0.286275;"/>
            <path d="M14.722,31.759l-14.722,24.345l14.722,-24.345Z" style="fill-opacity:0.172549;"/>
        </g>
        <g>
            <path d="M92.841,20.407l0,25.518l-6.446,0l0,-10.788l-11.223,0l0,10.788l-6.446,0l0,-25.518l6.446,0l0,10.666l11.223,0l0,-10.666l6.446,0Z" style="fill:#191f15;fill-rule:nonzero;"/>
            <path d="M104.633,24.961l0,5.955l8.683,0l0,4.378l-8.683,0l0,6.078l11.338,0l0,4.553l-17.784,0l0,-25.518l17.784,0l0,4.554l-11.338,0Z" style="fill:#191f15;fill-rule:nonzero;"/>
            <path d="M150.969,20.407l0,25.518l-5.65,0l0,-14.677c0,-0.338 0.009,-0.706 0.028,-1.103c0.019,-0.397 0.054,-0.8 0.105,-1.208l-7.337,13.118c-0.228,0.408 -0.534,0.718 -0.92,0.928c-0.385,0.21 -0.825,0.315 -1.318,0.315l-0.872,0c-0.493,0 -0.932,-0.105 -1.317,-0.315c-0.386,-0.21 -0.692,-0.52 -0.92,-0.928l-7.337,-13.153c0.038,0.42 0.07,0.831 0.095,1.234c0.025,0.403 0.038,0.774 0.038,1.112l0,14.677l-5.65,0l0,-25.518l4.891,0c0.279,0 0.522,0.006 0.73,0.018c0.209,0.011 0.395,0.046 0.56,0.105c0.164,0.058 0.313,0.149 0.445,0.271c0.133,0.123 0.262,0.295 0.389,0.517l7.109,12.943c0.253,0.444 0.496,0.905 0.73,1.384c0.234,0.478 0.458,0.969 0.673,1.471c0.215,-0.514 0.44,-1.016 0.673,-1.506c0.234,-0.491 0.484,-0.958 0.749,-1.402l7.091,-12.89c0.126,-0.222 0.256,-0.394 0.388,-0.517c0.133,-0.122 0.282,-0.213 0.446,-0.271c0.164,-0.059 0.351,-0.094 0.559,-0.105c0.209,-0.012 0.452,-0.018 0.73,-0.018l4.892,0Z" style="fill:#191f15;fill-rule:nonzero;"/>
            <path d="M172.961,41.197l0,4.728l-16.646,0l0,-25.518l6.408,0l0,20.79l10.238,0Z" style="fill:#191f15;fill-rule:nonzero;"/>
            <path d="M202.65,33.158c0,1.844 -0.344,3.561 -1.033,5.149c-0.689,1.588 -1.659,2.968 -2.91,4.142c-1.252,1.173 -2.759,2.093 -4.522,2.758c-1.763,0.666 -3.719,0.999 -5.868,0.999c-2.148,0 -4.107,-0.333 -5.877,-0.999c-1.769,-0.665 -3.283,-1.585 -4.541,-2.758c-1.257,-1.174 -2.23,-2.554 -2.919,-4.142c-0.689,-1.588 -1.033,-3.305 -1.033,-5.149c0,-1.845 0.344,-3.562 1.033,-5.15c0.689,-1.588 1.662,-2.965 2.919,-4.133c1.258,-1.168 2.772,-2.084 4.541,-2.75c1.77,-0.665 3.729,-0.998 5.877,-0.998c2.149,0 4.105,0.336 5.868,1.007c1.763,0.671 3.27,1.591 4.522,2.758c1.251,1.168 2.221,2.546 2.91,4.134c0.689,1.588 1.033,3.298 1.033,5.132Zm-6.56,0c0,-1.262 -0.177,-2.397 -0.53,-3.407c-0.354,-1.01 -0.863,-1.865 -1.527,-2.566c-0.663,-0.7 -1.475,-1.238 -2.436,-1.611c-0.96,-0.374 -2.054,-0.561 -3.28,-0.561c-1.238,0 -2.341,0.187 -3.308,0.561c-0.967,0.373 -1.782,0.911 -2.446,1.611c-0.663,0.701 -1.172,1.556 -1.526,2.566c-0.354,1.01 -0.531,2.145 -0.531,3.407c0,1.272 0.177,2.414 0.531,3.424c0.354,1.01 0.863,1.865 1.526,2.565c0.664,0.701 1.479,1.235 2.446,1.603c0.967,0.368 2.07,0.552 3.308,0.552c1.226,0 2.32,-0.184 3.28,-0.552c0.961,-0.368 1.773,-0.902 2.436,-1.603c0.664,-0.7 1.173,-1.555 1.527,-2.565c0.353,-1.01 0.53,-2.152 0.53,-3.424Z" style="fill:#191f15;fill-rule:nonzero;"/>
            <path d="M225.04,39.323c0.152,0 0.304,0.026 0.455,0.078c0.152,0.053 0.297,0.143 0.436,0.272l2.541,2.469c-1.112,1.343 -2.506,2.356 -4.18,3.039c-1.675,0.683 -3.656,1.025 -5.944,1.025c-2.098,0 -3.978,-0.33 -5.64,-0.99c-1.662,-0.66 -3.072,-1.57 -4.228,-2.732c-1.157,-1.162 -2.044,-2.54 -2.664,-4.133c-0.619,-1.594 -0.929,-3.325 -0.929,-5.193c0,-1.904 0.335,-3.652 1.005,-5.246c0.67,-1.594 1.612,-2.969 2.825,-4.125c1.213,-1.156 2.667,-2.055 4.36,-2.697c1.694,-0.642 3.558,-0.963 5.593,-0.963c1.037,0 2.013,0.084 2.929,0.254c0.917,0.169 1.773,0.403 2.569,0.7c0.797,0.298 1.53,0.657 2.199,1.077c0.67,0.421 1.264,0.876 1.783,1.367l-2.162,2.679c-0.139,0.164 -0.303,0.313 -0.493,0.447c-0.189,0.134 -0.455,0.201 -0.796,0.201c-0.227,0 -0.442,-0.046 -0.644,-0.14c-0.203,-0.093 -0.418,-0.207 -0.645,-0.341c-0.228,-0.135 -0.477,-0.281 -0.749,-0.438c-0.272,-0.158 -0.594,-0.304 -0.967,-0.438c-0.373,-0.134 -0.809,-0.248 -1.308,-0.342c-0.499,-0.093 -1.084,-0.14 -1.754,-0.14c-1.061,0 -2.031,0.181 -2.91,0.543c-0.878,0.362 -1.637,0.891 -2.275,1.585c-0.638,0.695 -1.131,1.547 -1.479,2.557c-0.347,1.01 -0.521,2.163 -0.521,3.46c0,1.307 0.193,2.469 0.578,3.485c0.386,1.016 0.91,1.871 1.574,2.566c0.663,0.694 1.437,1.223 2.322,1.585c0.885,0.362 1.833,0.543 2.844,0.543c0.581,0 1.112,-0.027 1.593,-0.079c0.48,-0.053 0.929,-0.14 1.346,-0.263c0.417,-0.122 0.809,-0.286 1.175,-0.49c0.367,-0.205 0.739,-0.464 1.119,-0.78c0.151,-0.116 0.316,-0.213 0.493,-0.289c0.177,-0.075 0.36,-0.113 0.549,-0.113Z" style="fill:#191f15;fill-rule:nonzero;"/>
            <path d="M237.686,30.741l1.024,0c0.948,0 1.63,-0.275 2.047,-0.824l6.219,-8.336c0.366,-0.444 0.761,-0.751 1.185,-0.92c0.423,-0.169 0.951,-0.254 1.583,-0.254l5.573,0l-8.19,10.316c-0.581,0.712 -1.207,1.226 -1.877,1.541c0.481,0.164 0.917,0.391 1.309,0.683c0.391,0.292 0.758,0.672 1.099,1.139l8.342,11.839l-5.726,0c-0.366,0 -0.679,-0.023 -0.938,-0.07c-0.259,-0.046 -0.483,-0.116 -0.673,-0.21c-0.19,-0.093 -0.354,-0.207 -0.493,-0.341c-0.139,-0.135 -0.272,-0.289 -0.398,-0.464l-6.256,-8.88c-0.228,-0.327 -0.516,-0.558 -0.863,-0.692c-0.348,-0.134 -0.818,-0.201 -1.413,-0.201l-1.554,0l0,10.858l-6.408,0l0,-25.518l6.408,0l0,10.334Z" style="fill:#191f15;fill-rule:nonzero;"/>
        </g>
    </g>
</svg>